#!OML:ASF H:\Terrain\Patient Classification 1\Terrain2\Thursday\justin.ASF
:FULLY-SPECIFIED
:DEGREES
1325
root -13.6555 17.1525 -23.2681 1081.49 2.85167 -363.324
lowerback 2.05189 1.73584 6.23778
upperback 1.34441 2.41329 3.3084
thorax 0.349454 1.23314 -0.126143
lowerneck -14.4373 -0.13641 -7.48847
upperneck 30.9931 2.62119 -1.70942
head 12.6913 0.09099 1.03371
rclavicle -7.95139e-015 -6.36111e-015
rhumerus -25.5397 -5.5594 -77.7247
rradius 28.1452
rwrist -12.3409
rhand -21.9375 12.2494
rfingers 7.12502
rthumb 4.46908 -17.6835
lclavicle -7.95139e-015 -6.36111e-015
lhumerus -39.5526 9.60808 83.2287
lradius 26.1606
lwrist -0.856511
lhand -18.0343 21.8515
lfingers 7.12502
lthumb 8.23723 51.671
rfemur -7.08007 -4.85519 27.3351
rtibia 27.5764
rfoot -19.2027 -0.947821
rtoes 12.0154
lfemur -14.4833 5.61245 -13.3166
ltibia 37.9105
lfoot -18.8415 -10.7637
ltoes -9.21765
1326
root -13.6558 17.1407 -23.2726 1081.57 2.91773 -363.62
lowerback 1.72288 1.78795 6.47883
upperback 1.40442 2.45146 3.4909
thorax 0.600541 1.2598 -0.0585571
lowerneck -14.5471 -0.247331 -7.49234
upperneck 30.9163 2.55497 -1.97254
head 12.6938 0.0284311 0.92377
rclavicle -3.43897e-014 -4.77083e-015
rhumerus -25.1522 -5.2911 -77.6251
rradius 27.8373
rwrist -12.9977
rhand -22.6963 13.4469
rfingers 7.12502
rthumb 3.73642 -16.5001
lclavicle -3.43897e-014 -4.77083e-015
lhumerus -39.5764 9.77937 83.4012
lradius 25.9856
lwrist -0.96761
lhand -17.8424 21.3752
lfingers 7.12502
lthumb 8.42241 51.1872
rfemur -7.41409 -4.83577 27.6941
rtibia 27.9667
rfoot -19.3877 -1.0892
rtoes 11.5417
lfemur -14.0058 5.40881 -13.1469
ltibia 36.973
lfoot -18.0958 -10.465
ltoes -6.12186
1327
root -13.6488 17.1252 -23.2752 1081.54 2.98648 -363.788
lowerback 1.34623 1.93748 6.57492
upperback 1.73869 2.59177 3.71313
thorax 1.15872 1.34763 0.140112
lowerneck -15.263 -0.548379 -8.27484
upperneck 31.0493 2.28993 -1.52507
head 12.8999 -0.133821 1.19381
rclavicle -1.59028e-015 -2.06736e-014
rhumerus -24.481 -5.50325 -77.2586
rradius 27.7422
rwrist -13.4366
rhand -22.7622 12.7281
rfingers 7.12502
rthumb 3.6727 -17.22
lclavicle -1.59028e-015 -2.06736e-014
lhumerus -39.2619 10.0029 83.8425
lradius 25.9714
lwrist -1.14537
lhand -17.5933 20.9438
lfingers 7.12502
lthumb 8.66286 50.7461
rfemur -7.57652 -4.98308 27.8378
rtibia 28.2772
rfoot -19.5698 -0.941382
rtoes 11.7488
lfemur -13.3732 5.07402 -13.1497
ltibia 35.963
lfoot -17.4681 -10.037
ltoes -1.59595
1328
root -13.6374 17.114 -23.2674 1081.51 3.15957 -363.402
lowerback 1.83312 2.19993 6.77718
upperback 1.31044 3.01987 3.04669
thorax 0.509507 1.54336 -0.688721
lowerneck -15.082 -0.77347 -7.75188
upperneck 31.4227 1.61152 -0.927153
head 13.0244 -0.301245 1.23579
rclavicle -3.29983e-014 -1.03368e-014
rhumerus -25.3631 -6.91118 -77.5974
rradius 27.8033
rwrist -13.3129
rhand -22.1053 14.5771
rfingers 7.12502
rthumb 4.3071 -15.3591
lclavicle -3.29983e-014 -1.03368e-014
lhumerus -39.9989 8.15141 83.72
lradius 26.2509
lwrist -0.513613
lhand -17.6259 20.9879
lfingers 7.12502
lthumb 8.63136 50.7914
rfemur -7.58723 -5.41402 27.3045
rtibia 28.4659
rfoot -19.7892 -0.635369
rtoes 11.6643
lfemur -12.7732 4.4378 -13.8034
ltibia 34.9469
lfoot -16.7335 -9.79273
ltoes 4.69853
1329
root -13.6358 17.1187 -23.2534 1081.42 3.44429 -362.933
lowerback 1.50313 1.76894 6.03203
upperback 1.50782 2.39584 3.32818
thorax 0.815348 1.23578 0.0314725
lowerneck -15.2614 -0.354139 -8.0897
upperneck 31.1327 2.43804 -1.27015
head 12.919 -0.0158308 1.28436
rclavicle -4.57205e-015 -1.27222e-014
rhumerus -24.609 -5.54997 -77.5664
rradius 27.3286
rwrist -13.6776
rhand -21.7569 14.7805
rfingers 7.12502
rthumb 4.64352 -15.1486
lclavicle -4.57205e-015 -1.27222e-014
lhumerus -40.2162 9.45676 83.9598
lradius 26.3143
lwrist -0.641885
lhand -17.4199 21.4221
lfingers 7.12502
lthumb 8.83011 51.2174
rfemur -7.46421 -5.59726 26.7492
rtibia 28.5975
rfoot -19.9863 -0.734523
rtoes 11.5043
lfemur -12.1322 3.73039 -14.5105
ltibia 33.937
lfoot -16.35 -9.21601
ltoes 8.11126
1330
root -13.6421 17.1185 -23.2417 1081.31 3.61386 -363.055
lowerback 1.40886 2.03483 6.26886
upperback 1.42634 2.74903 3.08126
thorax 0.823569 1.41422 -0.35132
lowerneck -15.9244 -0.939442 -7.81076
upperneck 31.6623 1.56823 -1.16995
head 13.3167 -0.377469 1.14726
rclavicle 2.34566e-014 4.45278e-014
rhumerus -24.8434 -6.83856 -77.5918
rradius 26.976
rwrist -13.2239
rhand -21.3719 14.3187
rfingers 7.12502
rthumb 5.01528 -15.602
lclavicle 2.34566e-014 4.45278e-014
lhumerus -40.2182 8.3899 83.9401
lradius 26.0803
lwrist -0.77397
lhand -17.2396 21.8196
lfingers 7.12502
lthumb 9.00416 51.6074
rfemur -7.34451 -5.35411 26.9562
rtibia 28.6833
rfoot -20.051 -1.24742
rtoes 11.0375
lfemur -11.521 3.18145 -14.514
ltibia 32.9786
lfoot -16.7464 -8.08507
ltoes 6.36603
1331
root -13.6379 17.099 -23.2395 1081.18 3.58021 -363.619
lowerback 1.49255 2.18443 6.90458
upperback 1.60473 2.94845 3.20253
thorax 0.999092 1.52612 -0.574757
lowerneck -16.0589 -0.844684 -8.01227
upperneck 31.2172 1.74549 -1.11071
head 13.1488 -0.300011 1.23114
rclavicle -2.34566e-014 -5.80451e-014
rhumerus -24.4001 -7.17678 -77.6832
rradius 26.7303
rwrist -12.6297
rhand -21.9159 14.7575
rfingers 7.12502
rthumb 4.49002 -15.1749
lclavicle -2.34566e-014 -5.80451e-014
lhumerus -39.7096 8.34166 84.1309
lradius 25.7237
lwrist -0.962691
lhand -17.3787 21.8268
lfingers 7.12502
lthumb 8.86994 51.6204
rfemur -7.21279 -5.23282 27.5897
rtibia 28.683
rfoot -20.1045 -1.39353
rtoes 11.052
lfemur -10.9932 2.61452 -14.0524
ltibia 32.1876
lfoot -17.409 -6.68954
ltoes 4.22267
1332
root -13.6261 17.0897 -23.2401 1081.18 3.61748 -363.69
lowerback 1.54864 2.29855 7.098
upperback 1.66665 3.10308 3.18319
thorax 1.0532 1.60781 -0.700931
lowerneck -16.6708 -0.931847 -7.98514
upperneck 31.3197 1.7328 -1.25347
head 13.3286 -0.331167 1.17086
rclavicle 1.60022e-014 6.36111e-015
rhumerus -24.3276 -7.10601 -77.8847
rradius 26.8477
rwrist -12.1936
rhand -23.3719 14.8834
rfingers 7.12502
rthumb 3.084 -15.074
lclavicle 1.60022e-014 6.36111e-015
lhumerus -39.5143 8.08369 84.4682
lradius 25.7715
lwrist -0.675895
lhand -17.5711 21.6137
lfingers 7.12502
lthumb 8.68423 51.4151
rfemur -7.15283 -5.39987 27.6031
rtibia 28.636
rfoot -20.2711 -1.23832
rtoes 11.6171
lfemur -10.659 1.97643 -14.1955
ltibia 31.6
lfoot -17.9374 -5.32009
ltoes 3.7458
1333
root -13.6188 17.0921 -23.238 1081.28 3.86262 -363.494
lowerback 1.37104 2.07164 6.72506
upperback 1.39178 2.79939 3.33338
thorax 0.822217 1.44138 -0.343013
lowerneck -16.1052 -0.633135 -8.06572
upperneck 31.2669 2.17001 -1.37518
head 13.1709 -0.157573 1.20387
rclavicle 1.12313e-014 2.06736e-014
rhumerus -24.5211 -6.51307 -77.881
rradius 26.611
rwrist -11.5981
rhand -24.1655 14.3944
rfingers 7.12502
rthumb 2.31754 -15.5727
lclavicle 1.12313e-014 2.06736e-014
lhumerus -40.3486 8.53497 84.6884
lradius 26.2567
lwrist -0.54917
lhand -17.509 22.0241
lfingers 7.12502
lthumb 8.74414 51.823
rfemur -7.16971 -5.41612 27.3939
rtibia 28.529
rfoot -20.304 -1.41176
rtoes 12.2402
lfemur -10.5633 1.36679 -14.6241
ltibia 31.1997
lfoot -18.2898 -4.26189
ltoes 3.69738
1334
root -13.6137 17.092 -23.2411 1081.38 3.95745 -363.713
lowerback 1.16097 1.8992 6.7582
upperback 1.22467 2.56057 3.59162
thorax 0.743859 1.31675 -0.092478
lowerneck -15.6983 -0.150162 -7.9548
upperneck 31.0504 2.84675 -1.56808
head 12.9718 0.140883 1.21122
rclavicle -1.39149e-014 -3.65764e-014
rhumerus -24.343 -6.49214 -77.7366
rradius 26.1648
rwrist -11.3829
rhand -23.9877 13.81
rfingers 7.12502
rthumb 2.48928 -16.1552
lclavicle -1.39149e-014 -3.65764e-014
lhumerus -40.7559 9.04053 84.8216
lradius 26.2932
lwrist -0.955766
lhand -17.1271 22.7126
lfingers 7.12502
lthumb 9.11268 52.4957
rfemur -7.24477 -5.22159 27.6745
rtibia 28.3823
rfoot -20.2504 -1.57075
rtoes 12.9718
lfemur -10.5732 0.855845 -14.5473
ltibia 30.9453
lfoot -18.3768 -3.60267
ltoes 4.4319
1335
root -13.6084 17.0997 -23.2515 1081.8 3.87188 -364.379
lowerback 0.713921 2.19486 7.48004
upperback 1.02723 2.92424 3.58514
thorax 0.847572 1.5022 -0.480445
lowerneck -15.2648 -0.548335 -7.59741
upperneck 30.9029 2.05718 -1.42998
head 12.8412 -0.135651 1.08048
rclavicle 1.88845e-015 2.22639e-014
rhumerus -24.7111 -7.03535 -77.868
rradius 26.549
rwrist -11.935
rhand -23.5509 13.1729
rfingers 7.12502
rthumb 2.91112 -16.787
lclavicle 1.88845e-015 2.22639e-014
lhumerus -40.5619 8.49745 84.7611
lradius 25.7865
lwrist -1.32045
lhand -16.9295 22.2725
lfingers 7.12502
lthumb 9.3034 52.0472
rfemur -7.75244 -4.96225 28.4665
rtibia 28.231
rfoot -20.2331 -1.69664
rtoes 12.8476
lfemur -10.9645 0.237205 -13.9576
ltibia 30.7678
lfoot -18.3479 -2.83062
ltoes 5.2548
1336
root -13.6072 17.0956 -23.2537 1081.6 4.17332 -364.564
lowerback 0.743086 2.10959 7.52118
upperback 0.96825 2.81856 3.67799
thorax 0.760722 1.44613 -0.411526
lowerneck -14.9256 -0.731412 -7.75253
upperneck 30.8532 1.75359 -1.29632
head 12.757 -0.264972 1.1111
rclavicle 9.74045e-015 7.95139e-016
rhumerus -25.0636 -6.48896 -78.1009
rradius 26.811
rwrist -12.0471
rhand -23.6438 13.1304
rfingers 7.12502
rthumb 2.82134 -16.8307
lclavicle 9.74045e-015 7.95139e-016
lhumerus -40.7375 8.62382 84.7141
lradius 25.5432
lwrist -1.42329
lhand -16.7388 21.5133
lfingers 7.12502
lthumb 9.4874 51.2797
rfemur -7.45938 -5.08636 28.6852
rtibia 28.0594
rfoot -20.2601 -2.06939
rtoes 12.0073
lfemur -10.682 -0.487485 -13.8629
ltibia 30.6828
lfoot -18.6315 -2.19767
ltoes 5.58874
1337
root -13.5981 17.1006 -23.2465 1081.6 4.43173 -363.929
lowerback 0.657049 1.98297 6.82768
upperback 0.95443 2.64172 3.5818
thorax 0.755458 1.3537 -0.127701
lowerneck -14.5376 -0.569105 -7.07465
upperneck 30.505 1.98882 -2.08379
head 12.5406 -0.169391 0.726464
rclavicle 9.93923e-017 -2.78299e-014
rhumerus -25.0723 -6.48862 -78.1786
rradius 26.6691
rwrist -11.4423
rhand -24.4681 12.9332
rfingers 7.12502
rthumb 2.02526 -17.0369
lclavicle 9.93923e-017 -2.78299e-014
lhumerus -40.8763 8.85132 84.7838
lradius 25.578
lwrist -1.55538
lhand -16.2313 21.0763
lfingers 7.12502
lthumb 9.97698 50.8198
rfemur -7.31262 -5.50258 27.9159
rtibia 27.9228
rfoot -20.206 -2.05194
rtoes 10.9439
lfemur -10.5186 -1.30552 -14.7253
ltibia 30.6346
lfoot -18.8893 -1.49065
ltoes 6.32898
1338
root -13.5983 17.1024 -23.2403 1081.48 4.51504 -363.84
lowerback 0.915191 1.89718 6.56887
upperback 0.744647 2.56679 3.63683
thorax 0.375473 1.30248 0.0555021
lowerneck -15.0051 -0.817787 -7.91636
upperneck 31.4771 1.71972 -1.30415
head 13.0385 -0.323706 1.13362
rclavicle -9.83984e-015 -1.03368e-014
rhumerus -25.5219 -6.59531 -78.2532
rradius 26.7304
rwrist -11.1193
rhand -24.7304 12.8745
rfingers 7.12502
rthumb 1.77196 -17.0978
lclavicle -9.83984e-015 -1.03368e-014
lhumerus -41.3673 9.06926 84.7326
lradius 25.6118
lwrist -1.69297
lhand -15.5849 20.7177
lfingers 7.12502
lthumb 10.6005 50.4303
rfemur -7.13726 -5.21454 27.8632
rtibia 27.846
rfoot -20.1594 -2.51286
rtoes 10.2491
lfemur -10.2707 -2.11737 -14.8994
ltibia 30.509
lfoot -18.8916 -0.796118
ltoes 6.03649
1339
root -13.6051 17.097 -23.245 1081.4 4.65445 -364.243
lowerback 1.22743 1.92037 6.7415
upperback 0.462485 2.65036 3.7813
thorax -0.0862704 1.32905 0.0898645
lowerneck -14.932 -0.734957 -7.72678
upperneck 31.6272 1.91043 -1.66742
head 13.0885 -0.269357 0.989335
rclavicle -2.54444e-014 -8.74653e-015
rhumerus -25.8283 -6.9015 -78.2625
rradius 26.5389
rwrist -11.0421
rhand -23.3448 13.5214
rfingers 7.12502
rthumb 3.11007 -16.4357
lclavicle -2.54444e-014 -8.74653e-015
lhumerus -41.6919 8.74801 84.9013
lradius 25.5373
lwrist -1.59666
lhand -15.0519 20.9471
lfingers 7.12502
lthumb 11.1147 50.6327
rfemur -7.06363 -4.47702 28.4699
rtibia 27.7899
rfoot -20.1215 -3.42258
rtoes 10.1874
lfemur -10.2146 -2.60399 -14.4108
ltibia 30.337
lfoot -18.6007 -0.689289
ltoes 5.9381
